<svg xmlns="http://www.w3.org/2000/svg" width="396" height="362" fill="none"><path fill="#77E0B5" d="M83.197 219.654a48.672 48.672 0 0 1 34.411 14.252 48.662 48.662 0 0 1 14.252 34.411v87.767H34.54v-87.767a48.654 48.654 0 0 1 30.036-44.959 48.669 48.669 0 0 1 18.621-3.704Z"/><path fill="#fff" stroke="#4F3CC9" stroke-miterlimit="10" stroke-width="1.96" d="m84.314 234.573.005.001a6.654 6.654 0 0 0 7.114-6.159l1.212-16.819a6.653 6.653 0 0 0-6.159-7.114l-.005-.001a6.654 6.654 0 0 0-7.114 6.159l-1.212 16.819a6.653 6.653 0 0 0 6.159 7.114Z"/><path fill="#4F3CC9" d="M84.942 234.639s2.514-13.911-1.479-24.024l9.202.332-.476 9.506-7.015 14.733-.233-.547Z"/><path fill="#fff" stroke="#4F3CC9" stroke-miterlimit="10" stroke-width="1.96" d="M367.031 198.495a39.04 39.04 0 0 1 8.142 34.9 39.028 39.028 0 0 1-23.755 26.833 44.685 44.685 0 1 1-70.206 55.301 40.93 40.93 0 0 1-42.96 21.724 40.93 40.93 0 0 1-33.905-34.175 25.196 25.196 0 0 1-26.469-6.734 25.184 25.184 0 0 1-4.775-26.892 42.522 42.522 0 0 1-51.592-26.121 42.51 42.51 0 0 1-2.198-20.863 38.145 38.145 0 0 1-22.527-19.054 38.138 38.138 0 0 1-2.187-29.423 35.006 35.006 0 0 1-35.53-13.094 35.01 35.01 0 0 1-2.834-37.76 37.5 37.5 0 0 1-28.323-40.91 37.503 37.503 0 0 1 37.22-33.022c1.695.001 3.388.119 5.067.352a21.239 21.239 0 0 1 31.234-4.002 31.867 31.867 0 0 1 55.72-19.305 22.661 22.661 0 0 1 19.333-11.41 22.653 22.653 0 0 1 19.663 10.83 37.772 37.772 0 0 1 39.497-24.45 37.773 37.773 0 0 1 33.337 32.349 56.035 56.035 0 0 1 79.778 75.092 47.217 47.217 0 0 1 18.26 89.825l.01.009Z"/><path fill="#F582AE" d="M79.352 169.922s32.518-28.549 50.089 43.188l-30.546 2.899s-8.003-51.676-19.543-46.087Z"/><path fill="#4F3CC9" d="M103.909 203.923s1.374 11.744 25.536 9.187L98.9 216.009l-1.369-6.046"/><path fill="#fff" stroke="#4F3CC9" stroke-miterlimit="10" stroke-width="1.96" d="M95.168 210.863c8.799-1.983 13.684-13.56 10.913-25.859-2.772-12.299-12.151-20.661-20.95-18.678-8.798 1.982-13.683 13.56-10.912 25.858 2.772 12.299 12.151 20.661 20.95 18.679Z"/><path stroke="#4F3CC9" stroke-linecap="round" stroke-miterlimit="10" stroke-width="1.96" d="M87.399 195.653s3.065 9.529 12.666 5.09"/><path fill="#4F3CC9" d="M102.688 179.504a1.716 1.716 0 1 0 0-3.433 1.716 1.716 0 0 0 0 3.433ZM93.838 184.161a1.715 1.715 0 1 0 .001-3.43 1.715 1.715 0 0 0 0 3.43Z"/><path stroke="#4F3CC9" stroke-linecap="round" stroke-miterlimit="10" stroke-width="1.96" d="M87.113 186.59s-.133-9.795 6.654-10.356M97.721 172.997s3.593 5 7.923-1.425"/><path fill="#77E0B5" d="M78.587 219.488s-12.48 4.339-11.145 4.339c1.336 0 9.344 2.795 9.344 2.795l-1.944 6.843 10.427 1.669-6.682-15.646ZM92.503 220.11l-7.234 15.019 10.147-3.969-1.882-3.208 6.53-5.294-7.561-2.548Z"/><path fill="#F582AE" d="m97.626 179.523 4.278 11.881-4.278.951v-12.832Z"/><path fill="#fff" stroke="#4F3CC9" stroke-miterlimit="10" stroke-width="1.96" d="M98.971 218.894a2.605 2.605 0 0 1 3.142-.414c.166-.261.342-.523.527-.774l-.342-.347a2.615 2.615 0 0 1 3.698-3.693l.404.404.128-.086-1.378-1.378a2.614 2.614 0 0 1 3.697-3.693l2.852 2.852c.317-.07.634-.132.95-.186l-7.295-8.768a3.092 3.092 0 1 1 4.753-3.954l10.033 12.057c.364.443.601.977.684 1.545a15.446 15.446 0 1 1-20.802 11.183l-1.037-1.041a2.619 2.619 0 0 1-.78-1.851 2.613 2.613 0 0 1 .766-1.856Z"/><path fill="#77E0B5" d="M144.215 304.151c4.2 7.274 13.501 9.766 20.775 5.567 7.274-4.2 9.767-13.501 5.567-20.775l-31.13-53.919c-4.2-7.274-13.501-9.766-20.775-5.567-7.274 4.2-9.767 13.501-5.567 20.775l31.13 53.919Z"/><path fill="#77E0B5" d="m114.794 258.893 29.579-23.89-13.513-16.73-29.579 23.89 13.513 16.73Z"/><path fill="#fff" stroke="#4F3CC9" stroke-miterlimit="10" stroke-width="1.96" d="M115.211 244.634a1.9 1.9 0 1 0 0-3.802 1.9 1.9 0 0 0 0 3.802Z"/><path fill="#4F3CC9" d="M131.86 346.189v-63.448l-16.649-24.799 16.634 97.904.015-9.657Z"/><path fill="#4F3CC9" d="m141.032 237.795-25.821 20.147 8.322 12.399 17.499-32.546ZM127.093 217.069l-22.689 19.961 1.24 1.654 23.288-18.692a12.585 12.585 0 0 0-1.839-2.923Z"/><path fill="#fff" stroke="#4F3CC9" stroke-miterlimit="10" stroke-width="1.96" d="m79.31 306.338-.808 10.456a7.821 7.821 0 0 0 7.171 8.398l46.491 3.593c1.871.414 3.799.512 5.703.29a37.411 37.411 0 0 0 8.498-2.044l6.62 3.707c.388.216.833.306 1.274.257h.038l9.158.185a1.755 1.755 0 0 0 1.783-1.711l.028-1.511a1.755 1.755 0 0 0-1.711-1.783l-8.792-.171-2.443-1.368a38.96 38.96 0 0 0 8.906-5.376l15.489 10.803a2.506 2.506 0 0 0 3.354-.714 2.51 2.51 0 0 0-.502-3.392l-14.985-10.456a10.56 10.56 0 0 0 .993-1.972l14.534 10.142a2.506 2.506 0 0 0 2.851-4.107l-17.109-11.929-1.36-.95a2.206 2.206 0 0 0-.356-.205l1.554.59 12.21 4.615a2.508 2.508 0 0 0 1.914-.061 2.497 2.497 0 0 0 1.47-2.359 2.495 2.495 0 0 0-1.616-2.262l-19.486-7.362a18.594 18.594 0 0 0-5.447-2.661c-2.186-.67-4.928-.333-7.799.475a71.22 71.22 0 0 0-8.602 3.208l-1.901.808c-.095.038-.195.076-.285.119-.87.356-1.692.737-2.472 1.131l-46.02-3.55a7.82 7.82 0 0 0-8.345 7.167Z"/><path fill="#77E0B5" d="M59.586 294.129c-8.368-.732-15.744 5.458-16.477 13.826-.732 8.367 5.458 15.744 13.826 16.476l62.022 5.426c8.368.732 15.745-5.458 16.477-13.825.732-8.368-5.458-15.744-13.826-16.476l-62.022-5.427Z"/><path fill="#77E0B5" d="m113.643 297.275 2.474 37.841 21.403-1.399-2.474-37.841-21.403 1.399Z"/><path fill="#fff" stroke="#4F3CC9" stroke-miterlimit="10" stroke-width="1.96" d="M126.527 307.488a1.9 1.9 0 1 0 0-3.802 1.9 1.9 0 0 0 0 3.802Z"/><path fill="#77E0B5" d="M43.028 310.403c.548 8.381 7.786 14.732 16.168 14.184s14.732-7.787 14.184-16.168l-4.273-65.367c-.548-8.381-7.786-14.732-16.168-14.184s-14.732 7.787-14.184 16.168l4.273 65.367Z"/><path fill="#4F3CC9" d="M131.86 334.103v21.743l-97.32.238v-86.498c-.067-3.384.418-15.77 4.32-21.155l3.954 58.458s-.95 17.827 17.223 17.804l55.725 4.871.362 5.561 15.736-1.022ZM112.226 298.729l-39.689-3.479-2.814-43.078s6.07 42.973 42.503 46.557Z"/><path fill="#4F3CC9" d="m72.537 295.259-13.15 7.339 12.494-17.39.57 8.692M113.491 298.838l2.271 30.736h-4.201l-7.157-31.53 9.087.794ZM135.861 308.215s-.774 23.992-19.737 26.919l21.386-1.402-1.649-25.517Z"/><path fill="#4F3CC9" d="M138.371 300.658s4.462 23.041 16.444 22.761l-2.49 1.212 3.626 1.392 8.312.314s2.377 1.326.509 4.277l-4.278.561-7.528-.437-6.601-3.707-8.512 2.025-1.226.19-1.193-27.342 2.937-1.246ZM179.995 326.313s-8.379-.708-18.797-7.4l15.522 11.145s2.671 1.222 3.275-1.425c.603-2.648 0-2.32 0-2.32ZM182.88 320.097s-9.934-1.611-17.291-6.564l14.672 10.632s4.23-.337 4.144-2.88c-.085-2.543-.423-.086-.423-.086s-.632-1.017-1.102-1.102ZM181.302 309.508l-17.143-3.032 13.782 5.228s3.218.099 3.361-2.196Z"/><path fill="#F582AE" d="M92.289 189.57c1.433 0 2.595-.43 2.595-.96s-1.162-.96-2.595-.96c-1.433 0-2.595.43-2.595.96s1.162.96 2.595.96ZM103.776 187.564c1.034 0 1.873-.217 1.873-.485 0-.267-.839-.484-1.873-.484s-1.872.217-1.872.484c0 .268.838.485 1.872.485Z"/><path fill="#4F3CC9" d="m83.406 230.747-.195.052c-11.848 2.994-21.31-6.25-21.31-6.25 5.788-3.326 16.69-6.302 16.69-6.302M41.626 235.129s-3.674 4.182-3.166 12.01c.509 7.827 4.192 60.834 4.192 60.834s-3.317-68.03-1.026-72.844Z"/><path fill="#fff" stroke="#4F3CC9" stroke-miterlimit="10" stroke-width="1.11" d="M1.005 353.76H395a7.395 7.395 0 0 1-7.395 7.395H8.395A7.395 7.395 0 0 1 1 353.76h.005Z"/><path fill="#4F3CC9" d="M1.993 357.457h392.014c.639-1.128.981-2.4.993-3.697H1.005s.404 2.642.988 3.697Z"/><path fill="#77E0B5" d="M149.159 85.729a20.361 20.361 0 0 1-8.973 16.881v8.788h-23.217v-9.073a20.373 20.373 0 0 1-5.183-27.806 20.364 20.364 0 0 1 17.728-9.14 20.37 20.37 0 0 1 19.645 20.35Z"/><path fill="#4F3CC9" d="M144.678 111.721h-30.969v3.669h30.969v-3.669ZM139.364 115.756h-21.297v3.109h21.297v-3.109ZM135.914 119.611H122.06v3.108h13.854v-3.108Z"/><path fill="#fff" stroke="#4F3CC9" stroke-miterlimit="10" stroke-width="1.96" d="M51.121 183.486a2.257 2.257 0 1 0 .002-4.514 2.257 2.257 0 0 0-.002 4.514ZM44.8 172.194a3.84 3.84 0 1 0 0-7.68 3.84 3.84 0 0 0 0 7.68ZM43.218 154.125a3.39 3.39 0 1 0-.002-6.779 3.39 3.39 0 0 0 .002 6.779ZM43.898 135.152a5.646 5.646 0 1 0 0-11.292 5.646 5.646 0 0 0 0 11.292Z"/><path fill="#F582AE" d="M90.031 215.957 63.264 222.9s4.406-6.943 2.71-13.383c-1.327-5.048-.675-18.464 2.542-25.242a18.747 18.747 0 0 0 1.507-4.244H69.7a12.358 12.358 0 1 1 11.882-15.779c4.13-1.216 8.445-.903 10.455 1.901 0 0-11.178 11.882-6.773 16.944 4.406 5.061 5.228 14.4 1.692 16.092-3.536 1.692 3.075 16.768 3.075 16.768Z"/><path fill="#4F3CC9" d="M116.423 69.65s-10.389 26.877 11.858 33.089v8.583H116.97v-8.921s-12.034-7.851-7.457-23.264c0 0 1.92-5.703 6.91-9.486Z"/><path fill="#77E0B5" d="M294.439 124.763a59.757 59.757 0 0 1-26.321 49.565v25.802h-68.186v-26.615a59.822 59.822 0 1 1 94.507-48.752Z"/><path fill="#4F3CC9" d="M281.278 201.076H190.36v10.765h90.918v-10.765ZM265.695 212.924h-62.531v9.13h62.531v-9.13ZM255.557 223.594h-40.673v9.13h40.673v-9.13ZM198.259 77.55s-30.507 78.922 34.818 97.149v25.189h-33.145v-26.183s-35.326-23.045-21.9-68.305c0 0 5.641-16.743 20.227-27.85Z"/><path fill="#77E0B5" d="M317.047 245.456a18.64 18.64 0 0 1-8.213 15.465v8.051h-21.273v-8.312a18.665 18.665 0 1 1 29.467-15.208l.019.004Z"/><path fill="#4F3CC9" d="M312.936 269.267h-28.364v3.36h28.364v-3.36ZM308.079 272.965h-19.51v2.847h19.51v-2.847ZM304.913 276.016h-12.689v2.847h12.689v-2.847ZM287.043 230.728s-9.505 24.623 10.86 30.303v7.861h-10.342v-8.175s-11.021-7.186-6.834-21.306c0 .009 1.759-5.218 6.316-8.683ZM102.379 241.307s13.93 14.914 42.997-6.996l-29.58 23.726-13.417-16.73Z"/></svg>